[ConversionWorker] Logging FFmpeg output to: ffmpeg_logs\ffmpeg_conversion_t_wav_20250525_154905.log\n[ConversionWorker] Getting duration with command: ffprobe -v error -show_entries format=duration -of default=noprint_wrappers=1:nokey=1 Z:\AAAAA01\t.wav\n[ConversionWorker] Duration for t.wav: 11418446 ms\n[ConversionWorker] Starting FFmpeg for t.wav: ffmpeg -i Z:\AAAAA01\t.wav -b:a 256k -vn -y -loglevel error -stats -progress pipe:1 Z:\AAAAA01\t.mp3\n[ConversionWorker] FFmpeg process started. PID: 30480\n[STDOUT RAW] bitrate= 154.3kbits/s\n[STDOUT RAW] total_size=91244\n[STDOUT RAW] out_time_us=4729958\n[STDOUT RAW] out_time_ms=4729958\n[STDOUT RAW] out_time=00:00:04.729958\n[STDOUT RAW] dup_frames=0\n[STDOUT RAW] drop_frames=0\n[STDOUT RAW] speed=9.21x\n[STDOUT RAW] progress=continue\n[STDERR RAW] size=      89KiB time=00:00:04.72 bitrate= 154.3kbits/s speed=9.21x\n[STDOUT RAW] bitrate= 157.1kbits/s\n[STDOUT RAW] total_size=180044\n[STDOUT RAW] out_time_us=9169958\n[STDOUT RAW] out_time_ms=9169958\n[STDOUT RAW] out_time=00:00:09.169958\n[STDOUT RAW] dup_frames=0\n[STDOUT RAW] drop_frames=0\n[STDOUT RAW] speed=8.98x\n[STDOUT RAW] progress=continue\n[STDERR RAW] size=     176KiB time=00:00:09.16 bitrate= 157.1kbits/s speed=8.98x\n[STDOUT RAW] bitrate= 158.1kbits/s\n[STDOUT RAW] total_size=524288\n[STDOUT RAW] out_time_us=26521958\n[STDOUT RAW] out_time_ms=26521958\n[STDOUT RAW] out_time=00:00:26.521958\n[STDOUT RAW] dup_frames=0\n[STDOUT RAW] drop_frames=0\n[STDOUT RAW] speed=17.2x\n[STDOUT RAW] progress=continue\n[STDERR RAW] size=     512KiB time=00:00:26.52 bitrate= 158.1kbits/s speed=17.2x\n[STDOUT RAW] bitrate= 153.9kbits/s\n[STDOUT RAW] total_size=2359296\n[STDOUT RAW] out_time_us=122641958\n[STDOUT RAW] out_time_ms=122641958\n[STDOUT RAW] out_time=00:02:02.641958\n[STDOUT RAW] dup_frames=0\n[STDOUT RAW] drop_frames=0\n[STDOUT RAW] speed=59.8x\n[STDOUT RAW] progress=continue\n[STDERR RAW] size=    2304KiB time=00:02:02.64 bitrate= 153.9kbits/s speed=59.8x\n[STDOUT RAW] bitrate= 156.3kbits/s\n[STDOUT RAW] total_size=4194304\n[STDOUT RAW] out_time_us=214633958\n[STDOUT RAW] out_time_ms=214633958\n[STDOUT RAW] out_time=00:03:34.633958\n[STDOUT RAW] dup_frames=0\n[STDOUT RAW] drop_frames=0\n[STDOUT RAW] speed=83.7x\n[STDOUT RAW] progress=continue\n[STDERR RAW] size=    4096KiB time=00:03:34.63 bitrate= 156.3kbits/s speed=83.7x\n[STDOUT RAW] bitrate= 157.0kbits/s\n[STDOUT RAW] total_size=6029312\n[STDOUT RAW] out_time_us=307249958\n[STDOUT RAW] out_time_ms=307249958\n[STDOUT RAW] out_time=00:05:07.249958\n[STDOUT RAW] dup_frames=0\n[STDOUT RAW] drop_frames=0\n[STDOUT RAW] speed=99.5x\n[STDOUT RAW] progress=continue\n[STDERR RAW] size=    5888KiB time=00:05:07.24 bitrate= 157.0kbits/s speed=99.5x\n[STDOUT RAW] bitrate= 159.6kbits/s\n[STDOUT RAW] total_size=7864320\n[STDOUT RAW] out_time_us=394129958\n[STDOUT RAW] out_time_ms=394129958\n[STDOUT RAW] out_time=00:06:34.129958\n[STDOUT RAW] dup_frames=0\n[STDOUT RAW] drop_frames=0\n[STDOUT RAW] speed= 110x\n[STDOUT RAW] progress=continue\n[STDOUT RAW] bitrate= 155.6kbits/s\n[STDERR RAW] size=    7680KiB time=00:06:34.12 bitrate= 159.6kbits/s speed= 110x\n[STDOUT RAW] total_size=9437184\n[STDOUT RAW] out_time_us=485089958\n[STDOUT RAW] out_time_ms=485089958\n[STDOUT RAW] out_time=00:08:05.089958\n[STDOUT RAW] dup_frames=0\n[STDOUT RAW] drop_frames=0\n[STDOUT RAW] speed= 118x\n[STDOUT RAW] progress=continue\n[STDERR RAW] size=    9216KiB time=00:08:05.08 bitrate= 155.6kbits/s speed= 118x\n[STDOUT RAW] bitrate= 157.1kbits/s\n[STDOUT RAW] total_size=11272192\n[STDOUT RAW] out_time_us=574177958\n[STDOUT RAW] out_time_ms=574177958\n[STDOUT RAW] out_time=00:09:34.177958\n[STDOUT RAW] dup_frames=0\n[STDOUT RAW] drop_frames=0\n[STDOUT RAW] speed= 124x\n[STDOUT RAW] progress=continue\n[STDERR RAW] size=   11008KiB time=00:09:34.17 bitrate= 157.1kbits/s speed= 124x\n[STDOUT RAW] bitrate= 157.8kbits/s\n[STDOUT RAW] total_size=13107200\n[STDOUT RAW] out_time_us=664321958\n[STDOUT RAW] out_time_ms=664321958\n[STDOUT RAW] out_time=00:11:04.321958\n[STDOUT RAW] dup_frames=0\n[STDOUT RAW] drop_frames=0\n[STDOUT RAW] speed= 129x\n[STDOUT RAW] progress=continue\n[STDERR RAW] size=   12800KiB time=00:11:04.32 bitrate= 157.8kbits/s speed= 129x\n[STDOUT RAW] bitrate= 157.2kbits/s\n[STDOUT RAW] total_size=14942208\n[STDOUT RAW] out_time_us=760345958\n[STDOUT RAW] out_time_ms=760345958\n[STDOUT RAW] out_time=00:12:40.345958\n[STDOUT RAW] dup_frames=0\n[STDOUT RAW] drop_frames=0\n[STDOUT RAW] speed= 134x\n[STDOUT RAW] progress=continue\n[ConversionWorker] Cancel method called.\n[ConversionWorker] Cancellation requested during processing. Terminating FFmpeg.\n[ConversionWorker] Waiting for reader threads to join...\n[STDERR RAW] size=   14592KiB time=00:12:40.34 bitrate= 157.2kbits/s speed= 134x\n[ConversionWorker] Process poll is None after loop, waiting for process to terminate...\n[ConversionWorker] FFmpeg process ended. Return code: 1\n[ConversionWorker] Closing FFmpeg log file.\n